# xmcd
#
# Track frame offsets: 
#        150
#        14472
#        27750
#        45169
#        63739
#        82177
#        99013
#        117553
#        133780
#        150712
#        165071
#        178936
#
# Disc length: 2557 seconds
#
# Revision: 0
# Processed by: cddbd v1.5.2PL0 Copyright (c) Steve Scherf et al.
# Submitted via: ExactAudioCopy v1.0b1
#
DISCID=9109fb0c
DTITLE=Wynn Varble - Badly Bent
DYEAR=2004
DGENRE=Country
TTITLE0=Badly Bent
TTITLE1=Ain't Nothing Like
TTITLE2=Small Talk Cafe
TTITLE3=New Orleans Love
TTITLE4=The Day Was Ours
TTITLE5=Hot
TTITLE6=Great Big Yellow Bluebird
TTITLE7=If I Can't Have Nothin'
TTITLE8=I'm Seein' Red
TTITLE9=Sorry
TTITLE10=She Wants Me
TTITLE11=The Jackass Song
EXTD=
EXTT0=
EXTT1=
EXTT2=
EXTT3=
EXTT4=
EXTT5=
EXTT6=
EXTT7=
EXTT8=
EXTT9=
EXTT10=
EXTT11=
PLAYORDER=
